<svg width="16" height="14" viewBox="0 0 16 14" fill="none" xmlns="http://www.w3.org/2000/svg">
<path d="M7.68672 2.69704C8.53223 2.0827 9.68032 1.70508 10.9442 1.70508C12.2089 1.70508 13.3562 2.0827 14.2018 2.69704V12.9887C13.3562 12.3744 12.2089 11.9967 10.9442 11.9967C9.68032 11.9967 8.53223 12.3744 7.68672 12.9887M7.68672 2.69704V12.9887V2.69704ZM7.68672 2.69704C6.84122 2.0827 5.69312 1.70508 4.42921 1.70508C3.16529 1.70508 2.0172 2.0827 1.17169 2.69704V12.9887C2.0172 12.3744 3.16529 11.9967 4.42921 11.9967C5.69312 11.9967 6.84122 12.3744 7.68672 12.9887V2.69704Z" stroke="#318B7C" stroke-width="2" stroke-linecap="round" stroke-linejoin="round"/>
</svg>
