<svg width="10" height="10" viewBox="0 0 10 10" fill="none" xmlns="http://www.w3.org/2000/svg">
<g clip-path="url(#clip0)">
<path d="M5 9.375C3.83968 9.375 2.72688 8.91406 1.90641 8.09359C1.08594 7.27312 0.625 6.16032 0.625 5C0.625 3.83968 1.08594 2.72688 1.90641 1.90641C2.72688 1.08594 3.83968 0.625 5 0.625C6.16032 0.625 7.27312 1.08594 8.09359 1.90641C8.91406 2.72688 9.375 3.83968 9.375 5C9.375 6.16032 8.91406 7.27312 8.09359 8.09359C7.27312 8.91406 6.16032 9.375 5 9.375ZM5 10C6.32608 10 7.59785 9.47322 8.53553 8.53553C9.47322 7.59785 10 6.32608 10 5C10 3.67392 9.47322 2.40215 8.53553 1.46447C7.59785 0.526784 6.32608 0 5 0C3.67392 0 2.40215 0.526784 1.46447 1.46447C0.526784 2.40215 0 3.67392 0 5C0 6.32608 0.526784 7.59785 1.46447 8.53553C2.40215 9.47322 3.67392 10 5 10Z" fill="#303030"/>
<path d="M5.58128 4.1175L4.15003 4.29687L4.09878 4.53437L4.38003 4.58625C4.56378 4.63 4.60003 4.69625 4.56003 4.87937L4.09878 7.04687C3.97753 7.6075 4.16441 7.87125 4.60378 7.87125C4.94441 7.87125 5.34003 7.71375 5.51941 7.4975L5.57441 7.2375C5.44941 7.3475 5.26691 7.39125 5.14566 7.39125C4.97378 7.39125 4.91128 7.27062 4.95566 7.05812L5.58128 4.1175ZM5.62503 2.8125C5.62503 2.97826 5.55918 3.13723 5.44197 3.25444C5.32476 3.37165 5.16579 3.4375 5.00003 3.4375C4.83427 3.4375 4.6753 3.37165 4.55809 3.25444C4.44088 3.13723 4.37503 2.97826 4.37503 2.8125C4.37503 2.64674 4.44088 2.48777 4.55809 2.37056C4.6753 2.25335 4.83427 2.1875 5.00003 2.1875C5.16579 2.1875 5.32476 2.25335 5.44197 2.37056C5.55918 2.48777 5.62503 2.64674 5.62503 2.8125Z" fill="#303030"/>
</g>
<defs>
<clipPath id="clip0">
<rect width="10" height="10" fill="white"/>
</clipPath>
</defs>
</svg>
