<svg width="16" height="16" viewBox="0 0 16 16" fill="none" xmlns="http://www.w3.org/2000/svg">
<path d="M5.07677 2.38971L3.10914 1.70944C2.89291 1.63482 2.66267 1.61451 2.43738 1.65018C2.21209 1.68584 1.9982 1.77646 1.81335 1.91457C1.62849 2.05268 1.47796 2.23433 1.37416 2.44454C1.27036 2.65475 1.21625 2.88751 1.21631 3.12363V11.9031C1.21624 12.216 1.31122 12.521 1.4878 12.7748C1.66438 13.0286 1.9136 13.2184 2.20012 13.3173L5.07677 14.3105C5.3718 14.4123 5.69075 14.4123 5.98578 14.3105L9.39173 13.1348C9.68677 13.033 10.0057 13.033 10.3008 13.1348L12.2684 13.8143C12.4847 13.8889 12.715 13.9092 12.9403 13.8735C13.1657 13.8378 13.3796 13.7471 13.5645 13.6089C13.7493 13.4707 13.8998 13.289 14.0036 13.0787C14.1074 12.8684 14.1614 12.6355 14.1612 12.3994V3.62061C14.1613 3.30782 14.0664 3.00291 13.89 2.74909C13.7136 2.49528 13.4645 2.30542 13.1781 2.20642L10.3015 1.2132C10.0062 1.11122 9.68699 1.11122 9.39173 1.2132L5.98507 2.38897C5.69003 2.49078 5.37109 2.49078 5.07605 2.38897L5.07677 2.38971Z" stroke="#318B7C" stroke-width="2" stroke-linecap="round" stroke-linejoin="round"/>
<path d="M5.53128 2.54614V14.4677" stroke="#318B7C" stroke-width="2" stroke-linejoin="round"/>
<path d="M9.84625 1.05591V12.9775" stroke="#318B7C" stroke-width="2" stroke-linejoin="round"/>
</svg>
