<svg width="16" height="16" viewBox="0 0 16 16" fill="none" xmlns="http://www.w3.org/2000/svg">
<path d="M5.76786 8.184C5.86886 8.6214 5.38901 8.95384 5.01573 8.7205L3.74273 7.92503L2.15314 10.4688C1.73801 11.1331 2.21783 11.9995 3.0007 11.9995H4.62533C4.83242 11.9995 5.00033 12.1674 5.00033 12.3745V13.6245C5.00033 13.8316 4.83242 13.9995 4.62533 13.9995H3.00392C0.649732 13.9995 -0.786768 11.4043 0.459919 9.40953L2.04811 6.86615L0.775451 6.0709C0.397919 5.83506 0.495263 5.25962 0.927919 5.15972L4.37283 4.3644C4.64192 4.30228 4.91036 4.47006 4.97248 4.73909L5.76786 8.184ZM8.84789 2.4679L10.1382 4.53278L8.86504 5.32831C8.48845 5.56356 8.58379 6.13934 9.01751 6.2395L12.4624 7.03481C12.7334 7.09728 13.0004 6.92737 13.0621 6.66012L13.8574 3.21522C13.9573 2.78259 13.4827 2.44275 13.1053 2.67872L11.8338 3.47322L10.5443 1.40815C9.37179 -0.467878 6.63154 -0.472191 5.45633 1.40815L4.89498 2.30709C4.78529 2.48272 4.83873 2.714 5.01436 2.82375L6.07433 3.48609C6.24995 3.59584 6.48133 3.54243 6.59108 3.36681L7.15236 2.46859C7.54961 1.83293 8.46401 1.85372 8.84789 2.4679ZM15.5406 9.40953L14.6807 8.0325C14.571 7.85678 14.3396 7.80331 14.1639 7.91309L13.1058 8.57431C12.9301 8.68406 12.8767 8.9154 12.9865 9.09106L13.8478 10.4696C14.2621 11.1324 13.7835 11.9996 12.9998 11.9996H10.0003V10.5002C10.0003 10.056 9.46151 9.83193 9.14679 10.1466L6.64679 12.646C6.45151 12.8413 6.45151 13.1579 6.64679 13.3531L9.14679 15.8528C9.45936 16.1654 10.0003 15.9464 10.0003 15.4992V13.9995H12.9966C15.3489 13.9995 16.7883 11.4059 15.5406 9.40953Z" fill="#318B7C"/>
</svg>
