<svg width="16" height="16" viewBox="0 0 16 16" fill="none" xmlns="http://www.w3.org/2000/svg">
<path d="M2.67236 4.51465C1.48126 5.75105 0.812286 7.42658 0.812286 9.17347C0.812286 10.9204 1.48126 12.5959 2.67236 13.8323C3.91689 15.1217 5.54295 15.7617 7.16901 15.7617C8.79507 15.7617 10.4211 15.1217 11.6657 13.8323C14.8269 10.557 15.3447 0.702881 15.3447 0.702881C15.3447 0.702881 5.83365 1.23935 2.67236 4.51465ZM10.3848 12.5052C9.52181 13.3899 8.38629 13.8794 7.16901 13.8794C6.36053 13.8794 5.59746 13.6441 4.91615 13.2394C5.75189 10.5288 7.29619 8.14759 9.34921 6.34994C6.96008 7.62994 4.95248 9.60641 3.56261 11.997C2.21816 10.1523 2.33625 7.52641 3.96231 5.8417C5.54295 4.20406 9.93059 3.197 13.3462 2.77347C12.9374 6.31229 11.9654 10.8582 10.3848 12.5052Z" fill="#318B7C"/>
</svg>
