<svg width="16" height="15" viewBox="0 0 16 15" fill="none" xmlns="http://www.w3.org/2000/svg">
<path fill-rule="evenodd" clip-rule="evenodd" d="M10.2627 1.1955C9.66263 0.592138 8.84869 0.253174 8 0.253174C7.15131 0.253174 6.33737 0.592138 5.73726 1.1955C5.13714 1.79886 4.8 2.61719 4.8 3.47047C4.79673 4.03609 4.94602 4.59202 5.232 5.07912H3.2C2.44 5.07912 1.8 5.61802 1.64 6.33387C0.0320002 12.7765 0 12.9454 0 13.1224C0 13.549 0.168571 13.9582 0.468629 14.2599C0.768687 14.5615 1.17565 14.731 1.6 14.731H14.4C14.8243 14.731 15.2313 14.5615 15.5314 14.2599C15.8314 13.9582 16 13.549 16 13.1224C16 12.9454 15.968 12.7765 14.36 6.33387C14.2 5.61802 13.56 5.07912 12.8 5.07912H10.768C11.048 4.60457 11.2 4.05763 11.2 3.47047C11.2 2.61719 10.8629 1.79886 10.2627 1.1955ZM6.86863 2.33299C7.16869 2.03131 7.57565 1.86182 8 1.86182C8.42435 1.86182 8.83131 2.03131 9.13137 2.33299C9.43143 2.63467 9.6 3.04383 9.6 3.47047C9.6 3.89711 9.43143 4.30628 9.13137 4.60796C8.83131 4.90964 8.42435 5.07912 8 5.07912C7.57565 5.07912 7.16869 4.90964 6.86863 4.60796C6.56857 4.30628 6.4 3.89711 6.4 3.47047C6.4 3.04383 6.56857 2.63467 6.86863 2.33299ZM3.2 6.68777H5.232H12.8L14.4 13.1224H1.6L3.2 6.68777Z" fill="#318B7C"/>
</svg>
