<svg width="51" height="52" viewBox="0 0 51 52" fill="none" xmlns="http://www.w3.org/2000/svg">
<path fill-rule="evenodd" clip-rule="evenodd" d="M37.185 31.0979C36.5487 30.7813 33.4291 29.2555 32.8483 29.043C32.2675 28.8327 31.8448 28.7285 31.4199 29.3618C30.9971 29.9908 29.7821 31.4145 29.4127 31.8353C29.0412 32.2581 28.6718 32.3091 28.0377 31.9946C27.4035 31.6759 25.3579 31.0108 22.9345 28.8603C21.0491 27.1858 19.7743 25.1182 19.4049 24.4849C19.0355 23.8538 19.3644 23.5117 19.6825 23.1972C19.9686 22.9145 20.3167 22.4598 20.6348 22.0922C20.953 21.7224 21.0576 21.4589 21.269 21.036C21.4825 20.6153 21.3757 20.2477 21.2156 19.931C21.0576 19.6144 19.7893 16.5056 19.2597 15.2412C18.7452 14.0108 18.222 14.1787 17.8334 14.1574C17.4619 14.1404 17.0391 14.1362 16.6163 14.1362C16.1936 14.1362 15.506 14.2934 14.9252 14.9267C14.3423 15.5578 12.7046 17.0857 12.7046 20.1945C12.7046 23.3013 14.9765 26.3039 15.2946 26.7268C15.6128 27.1475 19.7679 33.5268 26.133 36.2616C27.649 36.9119 28.8298 37.3008 29.7501 37.5898C31.2704 38.0721 32.654 38.0041 33.7472 37.8405C34.9643 37.6599 37.501 36.3126 38.0305 34.8379C38.5579 33.3631 38.5579 32.0988 38.3999 31.8353C38.2419 31.5718 37.8191 31.4145 37.1828 31.0979H37.185ZM25.6078 46.8292H25.5992C21.8187 46.8299 18.1075 45.8185 14.8548 43.901L14.0861 43.4462L6.09607 45.533L8.22916 37.781L7.72738 36.9863C5.6138 33.638 4.49528 29.7629 4.50106 25.8088C4.50533 14.2276 13.9729 4.80534 25.6163 4.80534C31.2533 4.80534 36.5529 6.99408 40.5373 10.9636C42.5025 12.9113 44.0601 15.2275 45.1201 17.7782C46.18 20.3289 46.7212 23.0635 46.7123 25.8237C46.7081 37.4049 37.2405 46.8292 25.6078 46.8292ZM43.5693 7.9482C41.2167 5.59142 38.4175 3.72273 35.3339 2.45042C32.2503 1.1781 28.9437 0.527471 25.6056 0.53622C11.6114 0.53622 0.217793 11.8731 0.213523 25.8067C0.211387 30.2607 1.37936 34.6084 3.60213 38.4398L0 51.5361L13.4605 48.0214C17.184 50.0404 21.3567 51.0983 25.5971 51.0983H25.6078C39.602 51.0983 50.9956 39.7615 50.9999 25.8258C51.0102 22.505 50.3588 19.2151 49.0834 16.1465C47.8079 13.0779 45.9338 10.2914 43.5693 7.9482Z" fill="white"/>
</svg>
